<?xml version="1.0" encoding="utf-8"?>
<svg version="1.1"
     id="Layer_1"
     xmlns="http://www.w3.org/2000/svg"
     xmlns:xlink="http://www.w3.org/1999/xlink" x="0px"
     y="0px"
     viewBox="0 0 47.4 51.9"
     style="enable-background:new 0 0 47.4 51.9;"
     xml:space="preserve"
>
  <g>
  <defs>
    <rect id="rect" width="47.4" height="51.9"/>
  </defs>
    <clipPath id="clip">
    <use xlink:href="#rect" style="overflow:visible;"/>
  </clipPath>
    <path style="clip-path:url(#clip);fill:#0B3E9CFF;" d="M36.7,25.9
    c0-0.6-0.3-1.1-0.8-1.4l-16.5-9.7c-0.5-0.3-1.2-0.3-1.7,0l-2.8,1.8c-0.3,0.2-0.5,0.5-0.5,0.9v2.2c0,0.6,0.7,1,1.3,0.7l2.4-1.5
    c0.3-0.2,0.8-0.2,1.1,0l13.4,7.9c0.3,0.2,0.5,0.6,0.5,0.9V32c0,0.6,0.5,1,1,1h1.6c0.6,0,1-0.5,1-1V25.9z M47.4,13.1v20.4
    c0,1.2-1.8,2.4-3.2,2.4H14.8c-1.8,0-3.2-1.4-3.2-3.2V12.3c0-1.5,1-3.2,2.2-3.9l13.4-7.8c1.3-0.7,3.2-0.7,4.5,0l13.4,7.8
    C46.6,9.2,47.4,11,47.4,13.1 M0,25.9c0-0.6,0.3-1.1,0.8-1.4c1.4-0.9,5-2.9,7-4C8.4,20.2,9,20.6,9,21.2v2.1c0,0.4-0.2,0.7-0.5,0.9
    l-4.3,2.5c-0.4,0.2-0.6,0.6-0.6,1.1v19.5c0,0.6,0.5,1,1,1H32c0.6,0,1-0.5,1-1v-7.9c0-0.6,0.5-1,1-1h1.6c0.6,0,1,0.5,1,1v10.9
    c0,0.9-0.7,1.6-1.6,1.6H1.7c-0.9,0-1.6-0.7-1.6-1.6L0,25.9z"/>
</g>
</svg>
